PathFileType	4	(X/Y/Z)	E:\Qualisys_Data\Carbon_Farble_Plate\Data\Amateur_Runner\S2\T1\S2T1V21_c3d.trc
DataRate	CameraRate	NumFrames	NumMarkers	Units	OrigDataRate	OrigDataStartFrame	OrigNumFrames
200.000000	200.000000	4	39	mm	200.000000	196	315
Frame#	Time	LSHO			RSHO			LICST			RICST			LASIS			LHEEL			RASIS			LTROC			RTROC			SACR			LTH1			LSK4			LTH2			LTH3			RHM5			LSK2			LTH4			RTH1			LTOE			RTH2			RTH3			RTH4			LLEP			RLEP			LSK1			LSK3			RSK1			LHM5			RSK2			LFT1			RSK3			RSK4			LLME			RLME			RTOE			RHEEL			RFT1			RFT2			LFT2			
		X1	Y1	Z1	X2	Y2	Z2	X3	Y3	Z3	X4	Y4	Z4	X5	Y5	Z5	X6	Y6	Z6	X7	Y7	Z7	X8	Y8	Z8	X9	Y9	Z9	X10	Y10	Z10	X11	Y11	Z11	X12	Y12	Z12	X13	Y13	Z13	X14	Y14	Z14	X15	Y15	Z15	X16	Y16	Z16	X17	Y17	Z17	X18	Y18	Z18	X19	Y19	Z19	X20	Y20	Z20	X21	Y21	Z21	X22	Y22	Z22	X23	Y23	Z23	X24	Y24	Z24	X25	Y25	Z25	X26	Y26	Z26	X27	Y27	Z27	X28	Y28	Z28	X29	Y29	Z29	X30	Y30	Z30	X31	Y31	Z31	X32	Y32	Z32	X33	Y33	Z33	X34	Y34	Z34	X35	Y35	Z35	X36	Y36	Z36	X37	Y37	Z37	X38	Y38	Z38	X39	Y39	Z39	

197	0.98	723.9276733398438	1458.45458984375	-432.8790283203125	774.8837890625	1427.572509765625	-131.1248474121094	685.914794921875	990.5128784179688	-436.6054382324219	702.7265014648438	967.1904296875	-134.3464813232422	743.8782958984375	940.61962890625	-417.7039794921875	537.6544799804688	413.4035034179688	-330.8902282714844	754.8571166992188	917.6764526367188	-159.8687744140625	629.7294921875	865.8928833007812	-447.6091613769531	596.7586669921875	879.0260009765625	-136.3330230712891	603.8155517578125	1023.243530273438	-278.1710510253906	878.232421875	722.6223754882812	-437.2823791503906	718.37841796875	489.6115112304688	-415.3269653320312	813.0494995117188	671.32958984375	-448.8798522949219	938.97705078125	640.7144775390625	-418.1336059570312	375.9779052734375	60.84377288818359	-175.4683837890625	805.7811889648438	535.6939697265625	-428.7069091796875	869.4003295898438	590.301025390625	-422.0224609375	658.9866943359375	599.2853393554688	-139.3429870605469	675.2953491210938	210.7750701904297	-344.7496337890625	585.2828369140625	623.2579345703125	-132.9328002929688	626.3564453125	505.8596801757812	-163.4235534667969	551.2030639648438	533.4310913085938	-152.0610961914062	919.32177734375	570.573974609375	-422.840576171875	564.0977172851562	487.8252563476562	-150.9735565185547	843.9459838867188	465.8711853027344	-415.2525634765625	754.7275390625	420.7870483398438	-404.3758850097656	521.2034912109375	369.539306640625	-155.203857421875	627.8875122070312	239.1965179443359	-408.0803527832031	458.6785888671875	418.9423217773438	-143.5563354492188	529.6922607421875	390.3786010742188	-299.609375	457.7467346191406	290.05859375	-167.4227752685547	397.7165832519531	341.5980529785156	-158.3624267578125	582.6949462890625	371.0707092285156	-384.9908142089844	309.005859375	168.8878173828125	-196.8772735595703	427.5824584960938	51.21448516845703	-241.8151397705078	243.4274139404297	187.3986663818359	-253.4788818359375	245.0029907226562	158.8330383300781	-285.08984375	230.2400207519531	165.4091949462891	-229.5560150146484	516.854248046875	394.2979431152344	-353.9569702148438
198	0.985	741.6444091796875	1463.373901367188	-432.4038391113281	796.0650634765625	1432.9267578125	-132.6130828857422	708.577392578125	995.833251953125	-436.4004516601562	726.9181518554688	971.0306396484376	-134.7911987304688	766.3919677734375	945.7781372070312	-417.5099182128906	569.8982543945312	398.4119262695312	-328.9891052246094	778.5333862304688	921.0601806640624	-160.5894165039062	653.8253784179688	871.453369140625	-448.7356567382812	619.3322143554688	884.3975830078125	-135.6242980957031	626.461181640625	1027.331909179688	-276.9169616699219	902.376708984375	728.194580078125	-436.7522888183594	745.7789306640625	484.9229125976562	-413.6232604980469	837.268798828125	676.8580322265625	-448.3609008789062	963.3242797851562	646.652587890625	-417.44580078125	380.2160034179688	62.0315055847168	-173.9976654052734	831.262939453125	535.760498046875	-427.6776123046875	893.8828735351562	595.8756103515625	-421.5664672851562	675.8154296875	604.28515625	-139.4128875732422	718.5772094726562	204.4862976074219	-344.9617614746094	602.4990844726562	630.2476806640625	-133.0337829589844	640.2322998046875	511.4095153808594	-163.1659698486328	566.1768798828125	540.8455200195312	-150.6409301757812	943.8551025390624	576.6025390625	-421.9094543457031	576.71728515625	494.9693298339844	-150.3859405517578	872.1487426757812	468.2327880859375	-414.4188842773438	786.1785888671875	418.3080444335938	-404.2376098632812	531.8984985351562	377.7901306152344	-153.8692779541016	669.2509765625	230.5028076171875	-407.9830322265625	469.2372436523438	427.2968444824219	-141.8915710449219	562.3541870117188	374.8838806152344	-297.966796875	469.0140380859375	298.2508239746094	-164.6987762451172	408.6683044433594	349.5077819824219	-156.5125274658203	616.6456909179688	359.5627746582031	-383.4915161132812	319.71142578125	176.1853942871094	-194.3206024169922	430.6148071289062	51.75242614746094	-239.706787109375	255.83984375	198.6727294921875	-251.4001312255859	256.6618957519531	170.8894958496094	-283.4339294433594	241.8601531982422	177.3202972412109	-227.6598510742188	550.5016479492188	378.4311828613281	-351.9651489257812
199	0.99	759.670166015625	1467.9365234375	-432.2521362304688	817.40185546875	1438.008666992188	-134.1703643798828	731.14208984375	1001.138122558594	-436.2867431640625	750.9810791015625	974.5360717773438	-135.2166900634766	788.6388549804688	950.4219970703124	-417.4598388671875	603.4727783203125	383.9297180175781	-326.6653137207031	801.8456420898438	924.467529296875	-160.9208221435547	677.2456665039062	876.89501953125	-449.5377502441406	642.2296752929688	889.4320068359375	-135.2894134521484	649.7633666992188	1031.380004882812	-275.7679748535156	926.39599609375	733.9608154296875	-436.3823852539062	773.4161376953125	479.9371948242188	-412.2185363769531	861.67431640625	682.1179809570312	-448.6799926757812	987.4241333007812	652.49853515625	-417.0692443847656	383.1765441894531	63.64920425415039	-172.5349578857422	856.07275390625	535.35205078125	-426.6993408203125	918.3991088867188	601.8406982421875	-421.8727111816406	692.5556030273438	609.199951171875	-139.4614105224609	762.0859985351562	198.8888549804688	-345.3316345214844	619.7335205078125	636.9898681640625	-132.0697479248047	654.5781860351562	517.4595947265625	-162.4524688720703	581.59130859375	548.5782470703125	-149.8484039306641	967.8268432617188	581.9955444335938	-420.9264221191406	590.4501953125	502.2374877929688	-149.6667785644531	900.29248046875	470.6059875488281	-414.9376220703125	817.449951171875	414.8934936523438	-403.3600463867188	543.2776489257812	386.5352783203125	-151.9083862304688	710.353759765625	222.2757415771484	-408.0301513671875	480.6268005371094	435.9779052734375	-140.3187103271484	596.3966674804688	359.181396484375	-296.3418579101562	480.6610107421875	306.2601013183594	-162.3041687011719	420.1448364257812	357.6273803710938	-154.9955902099609	651.1447143554688	347.8130493164062	-382.0291137695312	331.4398498535156	184.0025482177734	-191.5633392333984	434.8582458496094	51.97970581054688	-237.9416656494141	269.5960693359375	209.9511566162109	-249.3507080078125	269.4694519042969	182.6392669677734	-281.7964172363281	254.2302093505859	189.0956268310547	-226.0797882080078	583.9419555664062	362.6202087402344	-349.48388671875
200	0.995	777.8367309570312	1472.209350585938	-431.8267517089844	838.3456420898438	1443.0546875	-135.2889862060547	753.8929443359375	1006.040466308594	-435.8622741699219	774.723388671875	978.4794311523438	-135.5821228027344	811.3491821289062	954.9591674804688	-417.433349609375	636.9708251953125	369.0479736328125	-324.0355224609375	825.2811279296875	928.0277709960938	-161.3674163818359	701.1495971679688	881.9182739257812	-450.200927734375	664.5556640625	894.9191284179688	-134.7843780517578	672.702392578125	1035.734497070312	-275.1394958496094	950.4163208007812	738.7610473632812	-435.993896484375	800.89990234375	474.9177856445312	-411.3969116210938	885.7406005859375	687.1012573242188	-448.1857299804688	1011.114562988281	657.5934448242188	-415.7383422851562	387.5519714355469	65.30828857421875	-171.0399780273438	880.7443237304688	534.4043579101562	-425.8963623046875	942.6437377929688	606.1472778320312	-420.9750061035156	709.7354736328125	614.0444946289062	-138.9696960449219	805.26611328125	193.4803771972656	-346.475341796875	637.537109375	643.695068359375	-131.0843658447266	669.3163452148438	523.43505859375	-161.6873474121094	596.7012939453125	556.2943115234375	-149.395263671875	991.3630981445312	586.8173217773438	-420.5306396484375	604.2813110351562	509.6578674316406	-148.7158203125	927.980224609375	472.1733093261719	-415.1291198730469	848.4671020507812	412.1739807128906	-403.4306030273438	556.111083984375	394.9149780273438	-150.0500640869141	751.6871337890625	214.3514099121094	-407.90380859375	492.953369140625	444.2614440917969	-139.0793609619141	630.845947265625	343.5616760253906	-294.571044921875	493.1894836425781	314.6694946289062	-159.4979553222656	432.2015380859375	365.7969665527344	-153.4765167236328	685.8843383789062	336.3433532714844	-380.5830078125	343.92333984375	191.2458343505859	-189.2265014648438	439.4285888671875	52.05516052246094	-236.0389404296875	284.8158569335938	221.4157409667969	-247.0264587402344	283.3564147949219	195.3786468505859	-280.314697265625	268.3627014160156	201.8158264160156	-224.2983093261719	618.2996826171875	346.9434204101562	-347.1645812988281
